<svg xmlns="http://www.w3.org/2000/svg" width="512" height="512" viewBox="0 0 512 512" role="img" aria-labelledby="title">
  <title id="title">Death Race Radio</title>
  <rect width="512" height="512" rx="96" fill="#0d0d0d"/>
  <rect x="18" y="18" width="476" height="476" rx="82" fill="#c1272d"/>
  <path fill="#ffffff" d="M118 156h96c66 0 111 41 111 100s-45 100-111 100h-96V156Zm87 148c31 0 52-18 52-48s-21-48-52-48h-21v96h21Zm146-148h46l61 200h-64l-11-42h-50l-11 42h-63l62-200h34Zm20 111-13-50-13 50h26Z"/>
</svg>
